<svg id="Layer_1" enable-background="new 0 0 512 512" height="512" viewBox="0 0 512 512" width="512" xmlns="http://www.w3.org/2000/svg"><g><path d="m466 214h-254c-2.209 0-4-1.791-4-4v-8c0-9.941 8.059-18 18-18h226c9.941 0 18 8.059 18 18v8c0 2.209-1.791 4-4 4z" fill="#efefef"/><path d="m452 184h-30c9.941 0 18 8.059 18 18v8c0 2.209-1.791 4-4 4h30c2.209 0 4-1.791 4-4v-8c0-9.941-8.059-18-18-18z" fill="#e7e4e7"/><path d="m422.571 504.5h-167.142c-5.296 0-9.674-4.129-9.983-9.416l-16.446-281.084h220l-16.446 281.084c-.309 5.287-4.687 9.416-9.983 9.416z" fill="#ff6167"/><path d="m419 214-16.446 281.084c-.309 5.287-4.687 9.416-9.983 9.416h30c5.296 0 9.674-4.129 9.983-9.416l16.446-281.084z" fill="#fe454a"/><path d="m449.938 184h-221.876s-6.4-106 110.938-106 110.938 106 110.938 106z" fill="#d6faec"/><path d="m339 78c-5.247 0-10.236.22-15 .625 101.769 8.651 95.938 105.375 95.938 105.375h30s6.4-106-110.938-106z" fill="#ccfae8"/><path d="m354 37.5v146.5h-30v-142.5c0-2.209-1.791-4-4-4h-41v-30h45c16.569 0 30 13.431 30 30z" fill="#f8f7f7"/><path d="m386.909 384.862h-95.818c-1.707 0-3.091-1.384-3.091-3.091v-3.592c0-28.166 22.833-51 51-51 28.167 0 51 22.833 51 51v3.592c0 1.707-1.384 3.091-3.091 3.091z" fill="#f8f7f7"/><path d="m339 327.179c-5.221 0-10.257.788-15 2.246 20.845 6.406 36 25.809 36 48.754v3.592c0 1.707-1.384 3.091-3.091 3.091h30c1.707 0 3.091-1.384 3.091-3.091v-3.592c0-28.166-22.833-51-51-51z" fill="#efefef"/><g><path d="m296.739 348.651c-3.7-1.855-8.209-.358-10.065 3.345-4.097 8.174-6.174 16.983-6.174 26.183v3.592c0 5.84 4.751 10.591 10.591 10.591h95.818c5.84 0 10.591-4.751 10.591-10.591v-3.592c.495-41.985-44.87-71.109-82.8-53.228-3.768 1.722-5.425 6.172-3.703 9.939 1.724 3.768 6.173 5.427 9.939 3.703 27.908-13.158 61.363 7.964 61.556 38.769h-86.984c.117-6.549 1.655-12.818 4.576-18.645 1.856-3.703.359-8.21-3.345-10.066z"/><path d="m41.958 151.454c41.337.23 92.712.23 134.076 0 4.142-.023 7.48-3.399 7.458-7.542-.023-4.128-3.376-7.458-7.499-7.458h-.043c-41.355.229-92.668.229-133.908 0h-.042c-4.122 0-7.476 3.331-7.499 7.458-.023 4.142 3.316 7.519 7.457 7.542z"/><path d="m41.915 206.418c41.452.472 80.105.469 121.647 0 4.142-.047 7.461-3.442 7.415-7.584-.044-4.143-3.453-7.465-7.585-7.415-41.56.469-80.108.47-121.306 0-4.132-.051-7.542 3.271-7.586 7.414-.046 4.142 3.273 7.538 7.415 7.585z"/><path d="m42 261.383h.055c41.213-.295 92.516-.295 133.885 0h.055c4.117 0 7.47-3.323 7.499-7.447.029-4.142-3.305-7.523-7.446-7.553-41.436-.294-92.82-.294-134.099 0-4.142.03-7.476 3.412-7.446 7.554.027 4.124 3.379 7.446 7.497 7.446z"/><path d="m42 316.348h.01c40.889-.053 107.546-.053 148.589 0h.01c9.892-.329 9.956-14.636.01-15-41.055-.053-107.727-.053-148.628 0-4.142.005-7.495 3.368-7.49 7.51.005 4.139 3.362 7.49 7.499 7.49z"/><path d="m200.001 356.313h-.035c-41.488.187-116.765.188-157.931 0h-.035c-9.907.341-9.934 14.617-.033 15 41.333.187 116.671.187 158.068 0 9.908-.386 9.866-14.663-.034-15z"/><path d="m457.426 177.087c-.444-11.713-3.166-35.48-16.844-57.778-2.165-3.531-6.782-4.638-10.314-2.472-3.53 2.166-4.637 6.784-2.471 10.314 11.41 18.602 14.021 38.918 14.565 49.348h-80.862v-89.466c17.631 2.513 32.621 8.124 44.713 16.806 3.362 2.414 8.049 1.647 10.466-1.718 2.416-3.365 1.647-8.051-1.718-10.467-14.576-10.467-32.498-17.081-53.461-19.771v-34.383c0-20.678-16.822-37.5-37.5-37.5h-45c-4.143 0-7.5 3.358-7.5 7.5v30c0 4.142 3.357 7.5 7.5 7.5h37.5v26.877c-63.929 6.819-94.734 57.004-95.933 105.212-11.458 2.497-20.067 12.715-20.067 24.911v8c0 6.341 5.159 11.5 11.5 11.5h9.926l16.032 274.022c.541 9.24 8.215 16.478 17.471 16.478h105.802c9.931-.344 9.923-14.66 0-15h-105.802c-1.322 0-2.419-1.034-2.496-2.354l-15.982-273.146h204.097l-15.981 273.146c-.077 1.32-1.174 2.354-2.496 2.354h-25.956c-9.931.344-9.923 14.66 0 15h25.956c9.256 0 16.93-7.238 17.471-16.478l16.032-274.022h9.926c6.341 0 11.5-5.159 11.5-11.5v-8c0-12.198-8.612-22.418-20.074-24.913zm-110.926-.587h-15v-90.827c4.893-.225 10.106-.225 15 .002zm-26.5-146.5h-33.5v-15h37.5c12.406 0 22.5 10.093 22.5 22.5v33.163c-4.91-.207-10.091-.214-15-.017v-29.146c0-6.341-5.159-11.5-11.5-11.5zm-59.663 83.859c13.639-14.488 32.486-23.453 56.163-26.823v89.464h-80.877c.657-12.956 4.516-41.188 24.714-62.641zm202.163 92.641h-247v-4.5c0-5.79 4.71-10.5 10.5-10.5h226c5.79 0 10.5 4.71 10.5 10.5z"/></g></g></svg>