<svg id="Layer_1" enable-background="new 0 0 511.945 511.945" height="512" viewBox="0 0 511.945 511.945" width="512" xmlns="http://www.w3.org/2000/svg"><g><path d="m455.08 391.973h-253.595c-17.022 0-30.822-13.799-30.822-30.822v-21.686c0-3.413 2.767-6.179 6.179-6.179h302.879c3.413 0 6.179 2.767 6.179 6.179v21.686c.002 17.023-13.797 30.822-30.82 30.822z" fill="#e49a6b"/><path d="m479.721 333.285h-30c3.414 0 6.181 2.766 6.181 6.178v21.697c0 17.017-13.803 30.813-30.831 30.813h30c17.027 0 30.831-13.795 30.831-30.813v-21.697c0-3.412-2.768-6.178-6.181-6.178z" fill="#e0925b"/><path d="m479.728 258.969h-302.89c-3.494 0-6.289-2.88-6.179-6.37.855-27.25 13.482-132.626 157.625-132.626s156.769 105.376 157.625 132.626c.108 3.49-2.687 6.37-6.181 6.37z" fill="#e49a6b"/><path d="m328.283 119.973c-5.174 0-10.159.151-15 .414 130.015 7.066 141.8 105.94 142.625 132.212.11 3.49-2.686 6.37-6.179 6.37h30c3.494 0 6.289-2.88 6.179-6.37-.856-27.25-13.482-132.626-157.625-132.626z" fill="#e0925b"/><path d="m481.279 333.285h-305.993c-12.794 0-23.166-10.372-23.166-23.166 0-12.794 10.372-23.166 23.166-23.166h305.993c12.794 0 23.166 10.372 23.166 23.166 0 12.795-10.372 23.166-23.166 23.166z" fill="#e07f5d"/><path d="m481.266 286.953h-30c12.802 0 23.179 10.372 23.179 23.166 0 12.794-10.378 23.166-23.179 23.166h30c12.802 0 23.179-10.372 23.179-23.166 0-12.794-10.377-23.166-23.179-23.166z" fill="#d06d4a"/><path d="m490.453 286.953h-324.341c-7.728 0-13.992-6.264-13.992-13.992 0-7.728 6.264-13.992 13.992-13.992h324.341c7.728 0 13.992 6.264 13.992 13.992 0 7.728-6.264 13.992-13.992 13.992z" fill="#ffe589"/><path d="m490.445 258.969h-30c7.732 0 14 6.264 14 13.992s-6.268 13.992-14 13.992h30c7.732 0 14-6.264 14-13.992 0-7.727-6.268-13.992-14-13.992z" fill="#ffcd55"/><g><path d="m511.945 272.961c0-10.854-8.098-19.83-18.567-21.268-.305-8.348-1.724-24.391-7.649-42.478-1.29-3.937-5.53-6.082-9.462-4.792-3.937 1.29-6.082 5.526-4.792 9.462 5.181 15.814 6.55 29.868 6.884 37.584h-233.209c-9.931.344-9.923 14.659 0 15h245.295c8.605.306 8.598 12.681 0 12.984h-324.325c-8.605-.306-8.599-12.681 0-12.984h43.954c9.931-.344 9.923-14.659 0-15h-31.868c1.303-30.884 16.442-123.997 150.077-123.997 60.862 0 104.258 19.063 128.985 56.66 2.276 3.461 6.926 4.421 10.387 2.145s4.421-6.927 2.145-10.387c-31.921-47.054-81.642-62.937-141.517-63.418-34.398 0-64.195 5.932-88.565 17.63-52.879 23.895-75.778 80.294-76.532 121.591-18.503 2.525-25.13 26.169-10.662 37.9-14.171 15.288-8.313 40.855 10.697 48.715-.032.381-.058.765-.058 1.154v21.697c0 21.126 17.195 38.313 38.331 38.313h148.374c9.931-.344 9.923-14.659 0-15h-148.374c-12.865 0-23.331-10.458-23.331-23.313v-20.375h300.238v20.375c0 12.855-10.466 23.313-23.331 23.313h-69.51c-9.931.344-9.923 14.659 0 15h69.511c21.136 0 38.331-17.187 38.331-38.313v-21.697c0-.39-.026-.773-.058-1.154 19.019-7.865 24.863-33.433 10.697-48.715 4.82-3.944 7.904-9.933 7.904-16.632zm-30.666 52.824h-305.993c-20.788-.863-20.772-30.477 0-31.332h305.993c20.788.863 20.772 30.477 0 31.332z"/><path d="m7.445 151.209h144.577c9.931-.344 9.923-14.659 0-15h-144.577c-9.93.344-9.923 14.659 0 15z"/><path d="m125.766 191.209h-118.321c-9.931.344-9.923 14.659 0 15h118.32c9.931-.344 9.924-14.659.001-15z"/><path d="m7.445 261.209h87.961c9.931-.344 9.923-14.659 0-15h-87.961c-9.93.344-9.923 14.659 0 15z"/><path d="m7.445 316.209h87.961c9.931-.344 9.923-14.659 0-15h-87.961c-9.93.344-9.923 14.659 0 15z"/><path d="m120.843 356.209h-113.398c-9.931.344-9.923 14.659 0 15h113.397c9.931-.344 9.924-14.659.001-15z"/><path d="m278.935 164.704c2.33 0 4.626-1.082 6.091-3.116 2.421-3.361 1.66-8.048-1.701-10.469l-8.113-5.846c-8.258-5.527-16.62 6.094-8.769 12.17l8.113 5.846c1.328.956 2.86 1.415 4.379 1.415z"/><path d="m388.556 163.928c3.113-2.732 3.422-7.471.689-10.584-2.732-3.114-7.471-3.422-10.584-.689l-7.516 6.597c-3.113 2.732-3.422 7.471-.689 10.584 2.741 3.122 7.484 3.414 10.584.689z"/><path d="m332.753 163.757-9.976.69c-4.132.286-7.25 3.867-6.964 8 .272 4.141 3.919 7.265 8 6.964l9.976-.69c4.132-.286 7.25-3.867 6.964-8-.286-4.132-3.865-7.258-8-6.964z"/><path d="m374.611 198.415-7.544-6.564c-3.124-2.718-7.861-2.39-10.581.735-2.719 3.125-2.39 7.862.735 10.581l7.544 6.564c3.111 2.71 7.853 2.399 10.581-.735 2.719-3.125 2.39-7.862-.735-10.581z"/><path d="m278.415 208.294c.997 0 2.011-.2 2.983-.623l9.173-3.983c8.972-4.271 3.263-17.399-5.975-13.759l-9.173 3.983c-7.444 3.329-5.034 14.336 2.992 14.382z"/><path d="m233.085 177.489-8.026 5.965c-3.325 2.471-4.017 7.169-1.546 10.493 2.484 3.345 7.201 4.001 10.493 1.546l8.026-5.965c3.325-2.471 4.017-7.169 1.546-10.493-2.47-3.324-7.168-4.017-10.493-1.546z"/><path d="m425.532 177.489c-3.325-2.471-8.022-1.779-10.493 1.546-2.471 3.324-1.779 8.022 1.546 10.493l8.026 5.965c3.293 2.456 8.008 1.799 10.493-1.546 2.471-3.324 1.779-8.022-1.546-10.493z"/></g></g></svg>